#tb 0: 1/25
#media_type 0: video
#codec_id 0: rawvideo
#dimensions 0: 352x288
#sar 0: 0/1
0,          0,          0,        1,   152064, 0x9a9ce366
0,          1,          1,        1,   152064, 0xf4639828
0,          2,          2,        1,   152064, 0x625024a3
0,          3,          3,        1,   152064, 0x80dc2f9d
0,          4,          4,        1,   152064, 0xb2c4feea
0,          5,          5,        1,   152064, 0x4ec6ad64
0,          6,          6,        1,   152064, 0x1957bec3
0,          7,          7,        1,   152064, 0xb682799d
0,          8,          8,        1,   152064, 0x34cd2053
0,          9,          9,        1,   152064, 0x81490b4c
0,         10,         10,        1,   152064, 0x242dc943
0,         11,         11,        1,   152064, 0x3e126734
0,         12,         12,        1,   152064, 0x8e474ff8
0,         13,         13,        1,   152064, 0x239d2fbd
0,         14,         14,        1,   152064, 0x0ca3e16f
0,         15,         15,        1,   152064, 0x6161d7c2
0,         16,         16,        1,   152064, 0xca7ad1af
0,         17,         17,        1,   152064, 0xf8ef9026
0,         18,         18,        1,   152064, 0x01f2f4c1
0,         19,         19,        1,   152064, 0x510b19ec
0,         20,         20,        1,   152064, 0xe489028b
0,         21,         21,        1,   152064, 0x7a693c1e
0,         22,         22,        1,   152064, 0x276b23fe
0,         23,         23,        1,   152064, 0x0e9ced3a
0,         24,         24,        1,   152064, 0x658228f7
0,         25,         25,        1,   152064, 0x6a271bc3
0,         26,         26,        1,   152064, 0x431ecd8b
0,         27,         27,        1,   152064, 0x23a5ed14
0,         28,         28,        1,   152064, 0x76fbe121
0,         29,         29,        1,   152064, 0x471f919d
0,         30,         30,        1,   152064, 0x16bfabbc
0,         31,         31,        1,   152064, 0x0762993f
0,         32,         32,        1,   152064, 0x5a2b0b0e
0,         33,         33,        1,   152064, 0x81415ef7
0,         34,         34,        1,   152064, 0xb96e4164
0,         35,         35,        1,   152064, 0xf77aee83
0,         36,         36,        1,   152064, 0x6af81633
0,         37,         37,        1,   152064, 0xed78e5b5
0,         38,         38,        1,   152064, 0x67e38e2c
0,         39,         39,        1,   152064, 0x0417ae01
0,         40,         40,        1,   152064, 0x3887b312
0,         41,         41,        1,   152064, 0x3a4b70fb
0,         42,         42,        1,   152064, 0xcaae9e7f
0,         43,         43,        1,   152064, 0xaf9597be
0,         44,         44,        1,   152064, 0x9bae63d3
0,         45,         45,        1,   152064, 0x0e80825f
0,         46,         46,        1,   152064, 0x915661fd
0,         47,         47,        1,   152064, 0x67d3dc94
0,         48,         48,        1,   152064, 0x3dcf240c
0,         49,         49,        1,   152064, 0x127ff832
0,         50,         50,        1,   152064, 0xc8969981
0,         51,         51,        1,   152064, 0x57179c77
0,         52,         52,        1,   152064, 0x9f88656c
0,         53,         53,        1,   152064, 0xc28ff5d3
0,         54,         54,        1,   152064, 0xf100fad9
0,         55,         55,        1,   152064, 0xb570ce12
0,         56,         56,        1,   152064, 0xe8f28955
0,         57,         57,        1,   152064, 0x1f0a9549
0,         58,         58,        1,   152064, 0x22b17e9b
0,         59,         59,        1,   152064, 0x7cf1400e
0,         60,         60,        1,   152064, 0xafd273b7
0,         61,         61,        1,   152064, 0xeb9b712e
0,         62,         62,        1,   152064, 0x0f81de24
0,         63,         63,        1,   152064, 0x8f4e1953
0,         64,         64,        1,   152064, 0x682e2170
0,         65,         65,        1,   152064, 0xc32ad1b2
0,         66,         66,        1,   152064, 0x53a81d79
0,         67,         67,        1,   152064, 0x54002596
0,         68,         68,        1,   152064, 0x4b5fdbd9
0,         69,         69,        1,   152064, 0x96613368
0,         70,         70,        1,   152064, 0xd6ac0171
0,         71,         71,        1,   152064, 0xf1c1b7b7
0,         72,         72,        1,   152064, 0xc730d82f
0,         73,         73,        1,   152064, 0x0415d934
0,         74,         74,        1,   152064, 0x5338915e
0,         75,         75,        1,   152064, 0x8e9dda6d
0,         76,         76,        1,   152064, 0xe3a8b0a0
0,         77,         77,        1,   152064, 0x5fa36e44
0,         78,         78,        1,   152064, 0x0e63dc72
0,         79,         79,        1,   152064, 0xd0dad71f
0,         80,         80,        1,   152064, 0x0c4aac94
0,         81,         81,        1,   152064, 0x60d50e8d
0,         82,         82,        1,   152064, 0x96872d7c
0,         83,         83,        1,   152064, 0x4fcefc33
0,         84,         84,        1,   152064, 0x6b8157c9
0,         85,         85,        1,   152064, 0xa40d527d
0,         86,         86,        1,   152064, 0x9884480a
0,         87,         87,        1,   152064, 0xff5d9754
0,         88,         88,        1,   152064, 0x4a26a74d
0,         89,         89,        1,   152064, 0x81059e82
